<svg xmlns="http://www.w3.org/2000/svg" viewBox="0 0 500 500"><g id="freepik--background-complete--inject-147"><rect x="416.78" y="398.49" width="33.12" height="0.25" style="fill:#ebebeb"></rect><rect x="322.53" y="401.21" width="8.69" height="0.25" style="fill:#ebebeb"></rect><rect x="396.59" y="389.21" width="19.19" height="0.25" style="fill:#ebebeb"></rect><rect x="52.46" y="390.89" width="43.19" height="0.25" style="fill:#ebebeb"></rect><rect x="104.56" y="390.89" width="6.33" height="0.25" style="fill:#ebebeb"></rect><rect x="131.47" y="395.11" width="93.68" height="0.25" style="fill:#ebebeb"></rect><path d="M238.4,337.8H45.3a5.71,5.71,0,0,1-5.71-5.71V60.66A5.71,5.71,0,0,1,45.3,55H238.4a5.71,5.71,0,0,1,5.71,5.71V332.09A5.71,5.71,0,0,1,238.4,337.8ZM45.3,55.2a5.47,5.47,0,0,0-5.46,5.46V332.09a5.47,5.47,0,0,0,5.46,5.46H238.4a5.47,5.47,0,0,0,5.46-5.46V60.66a5.47,5.47,0,0,0-5.46-5.46Z" style="fill:#ebebeb"></path><path d="M454.7,338.06H261.6a5.71,5.71,0,0,1-5.71-5.71V60.92a5.71,5.71,0,0,1,5.71-5.71H454.7a5.71,5.71,0,0,1,5.71,5.71V332.35A5.71,5.71,0,0,1,454.7,338.06ZM261.6,55.46a5.47,5.47,0,0,0-5.46,5.46V332.35a5.47,5.47,0,0,0,5.46,5.46H454.7a5.47,5.47,0,0,0,5.46-5.46V60.92a5.47,5.47,0,0,0-5.46-5.46Z" style="fill:#ebebeb"></path><rect y="382.4" width="500" height="0.25" style="fill:#ebebeb"></rect><path d="M304.53,114.47H357.8s12.49-4.7,10.87-17.16-20.47-2.08-20.47-2.08,5.72-17.38-12.54-12.45A27,27,0,0,0,315.61,105S291.63,100.76,304.53,114.47Z" style="fill:#f5f5f5"></path><path d="M101.31,131.59c7.11,1.79,15.1-4.16,15.43-11.48.1-2.16-.36-4.33-.08-6.47.87-6.84,10.71-10.42,15.78-5.75a26.88,26.88,0,0,1,20.1-23.65c3.82-.9,8.05-.87,11.47,1.07s5.7,6.16,4.57,9.93A18.36,18.36,0,0,1,183.37,82a16.89,16.89,0,0,1,17.24,9.34c2.89,6.37.8,14.71-4.94,18.72,4-4.3,12.32-4.54,14.29-1.08a8.62,8.62,0,0,1,1.22,4.41c-.19,8.5-6.47,14.22-14.22,17.72S107.69,135,101.31,131.59Z" style="fill:#f5f5f5"></path><path d="M411.84,157.9l0,.28c-.34,0,.51,1,.7.74s-.07-.67-.33-.9a8.26,8.26,0,0,0-13.67,4.9c-2-2.37-5.74-2.41-8.54-1.1A11.93,11.93,0,0,0,383.34,173a5.72,5.72,0,0,0-6.87,1.67c-.68.91-1.06,2-1.73,2.94a5.89,5.89,0,0,1-4.5,2.41c6.72,1.38,33.73.72,40.39.85,2.9.05,5.84.31,8.7-.26s5.68-2.12,7-4.73.39-6.32-2.29-7.45a7.86,7.86,0,0,0-1.62-9.46C419.77,156.7,414.61,155.83,411.84,157.9Z" style="fill:#f5f5f5"></path><path d="M162.28,243.43v-3.58a.43.43,0,0,0-.85,0v3.93a.43.43,0,0,0,.42.42,1.71,1.71,0,1,1-1.71,1.71c0-.54-.91-.54-.85,0,.21,2.12,2.69,3.52,4.38,1.82A2.56,2.56,0,0,0,162.28,243.43Z" style="fill:#ebebeb"></path><path d="M99.5,217.79v7.74l-8.15-8.14-.4.4h-.57v73.46h10.25V217.79Zm-8,56L98.69,281H91.52Zm0-18.22,7.17,7.17H91.52Zm0-18.23,7.17,7.18H91.52Zm0-18.22,7.17,7.17H91.52Zm7.17,8.31-7.17,7.17v-7.17Zm.81.8v7.17H92.32Zm-.81,17.42-7.17,7.18v-7.18Zm.81.81v7.17H92.32Zm-.81,17.42-7.17,7.17v-7.17Zm.81.8v7.17H92.32Zm-.81,17.42-7.17,7.17v-7.17Zm-6.37,8,7.18-7.18v7.18Zm7.18-9.92L92.32,273H99.5Zm0-18.22-7.18-7.17H99.5Zm0-18.23-7.18-7.17H99.5Z" style="fill:#f0f0f0"></path><path d="M91.52,193.59v14.24h1.14v-5.46l5.86,5.86.4-.4h.57V193.59Zm6,1.14-4.89,4.89v-4.89Zm.81,11.73-4.9-4.9h4.9Zm-4.9-6,4.9-4.9v4.9Z" style="fill:#f0f0f0"></path><rect x="59.15" y="217.79" width="13.67" height="13.67" style="fill:#e6e6e6"></rect><polygon points="162.04 237.5 161.28 237.5 161.28 211.23 97.64 190.12 93.43 190.12 59.35 211.28 58.95 210.63 93.21 189.37 97.76 189.37 97.82 189.39 162.04 210.68 162.04 237.5" style="fill:#e6e6e6"></polygon><path d="M154.26,218.38H155l8-8H58.58v8h95.68Zm1.13-6.86h4.9l-4.9,4.9Zm-95.67,5.7v-4.89l4.89,4.89Zm5.69-.8-4.89-4.9h4.89Zm1.14-4.9h4.9l-4.9,4.9Zm5.7,5.7h-4.9l4.9-4.89Zm1.13,0v-4.89l4.9,4.89Zm5.7-.8-4.89-4.9h4.89Zm1.14-4.9h4.89l-4.89,4.9Zm5.7,5.7H81l4.9-4.89Zm1.13,0v-4.89l4.9,4.89Zm5.7-.8-4.89-4.9h4.89Zm1.14-4.9h4.89l-4.89,4.9Zm5.69,5.7H94.69l4.89-4.89Zm1.14,0v-4.89l4.89,4.89Zm5.7-.8-4.9-4.9h4.9Zm1.13-4.9h4.9l-4.9,4.9Zm5.7,5.7h-4.89l4.89-4.89Zm1.14,0v-4.89l4.89,4.89Zm5.7-.8-4.9-4.9h4.9Zm1.13-4.9h4.9l-4.9,4.9Zm5.7,5.7H122l4.89-4.89Zm1.14,0v-4.89l4.89,4.89Zm5.69-.8-4.89-4.9h4.89Zm1.14-4.9h4.89l-4.89,4.9Zm5.7,5.7h-4.9l4.9-4.89Zm1.13-5.7h4.9l-4.9,4.9Zm5.7,5.7h-4.89l4.89-4.89Zm1.14,0v-4.89l4.89,4.89Zm.8-5.7h4.9v4.9Z" style="fill:#f0f0f0"></path><path d="M105.68,220.89h-21l.77-8.84a4.61,4.61,0,0,1,4.6-4.22h10a4.62,4.62,0,0,1,4.59,4.09Z" style="fill:#f0f0f0"></path><rect x="88.06" y="211.5" width="4.04" height="4.04" style="fill:#fafafa"></rect><rect x="93.16" y="211.5" width="4.04" height="4.04" style="fill:#fafafa"></rect><rect x="98.26" y="211.5" width="4.04" height="4.04" style="fill:#fafafa"></rect><circle cx="95.51" cy="191.41" r="2.75" style="fill:#e6e6e6"></circle><path d="M161.85,242.21h0a2.36,2.36,0,0,1-2.35-2.36V237.5h4.7v2.35A2.36,2.36,0,0,1,161.85,242.21Z" style="fill:#e6e6e6"></path><rect x="275.23" y="234.39" width="76.34" height="132" style="fill:#e6e6e6"></rect><polygon points="289.89 215.94 289.89 234.39 295.91 234.39 330.89 234.39 336.91 234.39 336.91 215.94 289.89 215.94" style="fill:#e6e6e6"></polygon><rect x="273.66" y="232.5" width="79.49" height="1.99" transform="translate(626.81 466.99) rotate(180)" style="fill:#f5f5f5"></rect><rect x="287.9" y="213.95" width="51.01" height="1.99" transform="translate(626.81 429.9) rotate(180)" style="fill:#f5f5f5"></rect><rect x="259.32" y="234.39" width="76.34" height="132" style="fill:#f0f0f0"></rect><polygon points="273.98 215.94 273.98 234.39 280 234.39 314.98 234.39 321 234.39 321 215.94 273.98 215.94" style="fill:#f0f0f0"></polygon><rect x="264.2" y="239.28" width="9.77" height="9.77" style="fill:#fff"></rect><rect x="283.13" y="239.28" width="9.77" height="9.77" style="fill:#fff"></rect><rect x="302.06" y="239.28" width="9.77" height="9.77" style="fill:#fff"></rect><rect x="321" y="239.28" width="9.77" height="9.77" style="fill:#fff"></rect><rect x="264.2" y="257.04" width="9.77" height="9.77" style="fill:#fff"></rect><rect x="283.13" y="257.04" width="9.77" height="9.77" style="fill:#fff"></rect><rect x="302.06" y="257.04" width="9.77" height="9.77" style="fill:#fff"></rect><rect x="321" y="257.04" width="9.77" height="9.77" style="fill:#fff"></rect><rect x="264.2" y="274.8" width="9.77" height="9.77" style="fill:#fff"></rect><rect x="283.13" y="274.8" width="9.77" height="9.77" style="fill:#fff"></rect><rect x="302.06" y="274.8" width="9.77" height="9.77" style="fill:#fff"></rect><rect x="283.13" y="223.93" width="9.77" height="9.77" style="fill:#fff"></rect><rect x="302.06" y="223.93" width="9.77" height="9.77" style="fill:#fff"></rect><rect x="321" y="274.8" width="9.77" height="9.77" style="fill:#fff"></rect><rect x="264.2" y="292.55" width="9.77" height="9.77" style="fill:#fff"></rect><rect x="283.13" y="292.55" width="9.77" height="9.77" style="fill:#fff"></rect><rect x="302.06" y="292.55" width="9.77" height="9.77" style="fill:#fff"></rect><rect x="321" y="292.55" width="9.77" height="9.77" style="fill:#fff"></rect><rect x="264.2" y="310.31" width="9.77" height="9.77" style="fill:#fff"></rect><rect x="283.13" y="310.31" width="9.77" height="9.77" style="fill:#fff"></rect><rect x="302.06" y="310.31" width="9.77" height="9.77" style="fill:#fff"></rect><rect x="321" y="310.31" width="9.77" height="9.77" style="fill:#fff"></rect><rect x="264.2" y="328.07" width="9.77" height="9.77" style="fill:#fff"></rect><rect x="283.13" y="328.07" width="9.77" height="9.77" style="fill:#fff"></rect><rect x="302.06" y="328.07" width="9.77" height="9.77" style="fill:#fff"></rect><rect x="321" y="328.07" width="9.77" height="9.77" style="fill:#fff"></rect><rect x="264.2" y="345.83" width="9.77" height="9.77" style="fill:#fff"></rect><rect x="283.13" y="345.83" width="9.77" height="9.77" style="fill:#fff"></rect><rect x="302.06" y="345.83" width="9.77" height="9.77" style="fill:#fff"></rect><rect x="321" y="345.83" width="9.77" height="9.77" style="fill:#fff"></rect><rect x="257.74" y="232.5" width="79.49" height="1.99" transform="translate(594.97 466.99) rotate(180)" style="fill:#f5f5f5"></rect><rect x="271.98" y="213.95" width="51.01" height="1.99" transform="translate(594.97 429.9) rotate(180)" style="fill:#f5f5f5"></rect><rect x="378.27" y="246.28" width="69.47" height="120.12" style="fill:#e6e6e6"></rect><rect x="376.84" y="244.56" width="72.33" height="1.81" transform="translate(826.01 490.93) rotate(180)" style="fill:#f5f5f5"></rect><rect x="363.79" y="246.28" width="69.47" height="120.12" style="fill:#f0f0f0"></rect><rect x="368.24" y="250.73" width="8.89" height="8.89" style="fill:#fff"></rect><rect x="385.46" y="250.73" width="8.89" height="8.89" style="fill:#fff"></rect><rect x="402.69" y="250.73" width="8.89" height="8.89" style="fill:#fff"></rect><rect x="419.92" y="250.73" width="8.89" height="8.89" style="fill:#fff"></rect><rect x="368.24" y="266.89" width="8.89" height="8.89" style="fill:#fff"></rect><rect x="385.46" y="266.89" width="8.89" height="8.89" style="fill:#fff"></rect><rect x="402.69" y="266.89" width="8.89" height="8.89" style="fill:#fff"></rect><rect x="419.92" y="266.89" width="8.89" height="8.89" style="fill:#fff"></rect><rect x="368.24" y="283.04" width="8.89" height="8.89" style="fill:#fff"></rect><rect x="385.46" y="283.04" width="8.89" height="8.89" style="fill:#fff"></rect><rect x="402.69" y="283.04" width="8.89" height="8.89" style="fill:#fff"></rect><rect x="419.92" y="283.04" width="8.89" height="8.89" style="fill:#fff"></rect><rect x="368.24" y="299.2" width="8.89" height="8.89" style="fill:#fff"></rect><rect x="385.46" y="299.2" width="8.89" height="8.89" style="fill:#fff"></rect><rect x="402.69" y="299.2" width="8.89" height="8.89" style="fill:#fff"></rect><rect x="419.92" y="299.2" width="8.89" height="8.89" style="fill:#fff"></rect><rect x="368.24" y="315.36" width="8.89" height="8.89" style="fill:#fff"></rect><rect x="385.46" y="315.36" width="8.89" height="8.89" style="fill:#fff"></rect><rect x="402.69" y="315.36" width="8.89" height="8.89" style="fill:#fff"></rect><rect x="419.92" y="315.36" width="8.89" height="8.89" style="fill:#fff"></rect><rect x="368.24" y="331.52" width="8.89" height="8.89" style="fill:#fff"></rect><rect x="385.46" y="331.52" width="8.89" height="8.89" style="fill:#fff"></rect><rect x="402.69" y="331.52" width="8.89" height="8.89" style="fill:#fff"></rect><rect x="419.92" y="331.52" width="8.89" height="8.89" style="fill:#fff"></rect><rect x="368.24" y="347.68" width="8.89" height="8.89" style="fill:#fff"></rect><rect x="385.46" y="347.68" width="8.89" height="8.89" style="fill:#fff"></rect><rect x="402.69" y="347.68" width="8.89" height="8.89" style="fill:#fff"></rect><rect x="419.92" y="347.68" width="8.89" height="8.89" style="fill:#fff"></rect><rect x="362.36" y="244.56" width="72.33" height="1.81" transform="translate(797.05 490.93) rotate(180)" style="fill:#f5f5f5"></rect><rect x="168.61" y="234.39" width="76.34" height="132" style="fill:#e6e6e6"></rect><polygon points="183.27 215.94 183.27 234.39 189.29 234.39 224.27 234.39 230.29 234.39 230.29 215.94 183.27 215.94" style="fill:#e6e6e6"></polygon><rect x="167.04" y="232.5" width="79.49" height="1.99" transform="translate(413.57 466.99) rotate(180)" style="fill:#f5f5f5"></rect><rect x="181.28" y="213.95" width="51.01" height="1.99" transform="translate(413.57 429.9) rotate(180)" style="fill:#f5f5f5"></rect><rect x="152.7" y="234.39" width="76.34" height="132" style="fill:#f0f0f0"></rect><polygon points="167.36 215.94 167.36 234.39 173.38 234.39 208.36 234.39 214.38 234.39 214.38 215.94 167.36 215.94" style="fill:#f0f0f0"></polygon><rect x="157.58" y="239.28" width="9.77" height="9.77" style="fill:#fff"></rect><rect x="176.51" y="239.28" width="9.77" height="9.77" style="fill:#fff"></rect><rect x="195.44" y="239.28" width="9.77" height="9.77" style="fill:#fff"></rect><rect x="214.38" y="239.28" width="9.77" height="9.77" style="fill:#fff"></rect><rect x="157.58" y="257.04" width="9.77" height="9.77" style="fill:#fff"></rect><rect x="176.51" y="257.04" width="9.77" height="9.77" style="fill:#fff"></rect><rect x="195.44" y="257.04" width="9.77" height="9.77" style="fill:#fff"></rect><rect x="214.38" y="257.04" width="9.77" height="9.77" style="fill:#fff"></rect><rect x="157.58" y="274.8" width="9.77" height="9.77" style="fill:#fff"></rect><rect x="176.51" y="274.8" width="9.77" height="9.77" style="fill:#fff"></rect><rect x="195.44" y="274.8" width="9.77" height="9.77" style="fill:#fff"></rect><rect x="176.51" y="223.93" width="9.77" height="9.77" style="fill:#fff"></rect><rect x="195.44" y="223.93" width="9.77" height="9.77" style="fill:#fff"></rect><rect x="214.38" y="274.8" width="9.77" height="9.77" style="fill:#fff"></rect><rect x="157.58" y="292.55" width="9.77" height="9.77" style="fill:#fff"></rect><rect x="176.51" y="292.55" width="9.77" height="9.77" style="fill:#fff"></rect><rect x="195.44" y="292.55" width="9.77" height="9.77" style="fill:#fff"></rect><rect x="214.38" y="292.55" width="9.77" height="9.77" style="fill:#fff"></rect><rect x="157.58" y="310.31" width="9.77" height="9.77" style="fill:#fff"></rect><rect x="176.51" y="310.31" width="9.77" height="9.77" style="fill:#fff"></rect><rect x="195.44" y="310.31" width="9.77" height="9.77" style="fill:#fff"></rect><rect x="214.38" y="310.31" width="9.77" height="9.77" style="fill:#fff"></rect><rect x="157.58" y="328.07" width="9.77" height="9.77" style="fill:#fff"></rect><rect x="176.51" y="328.07" width="9.77" height="9.77" style="fill:#fff"></rect><rect x="195.44" y="328.07" width="9.77" height="9.77" style="fill:#fff"></rect><rect x="214.38" y="328.07" width="9.77" height="9.77" style="fill:#fff"></rect><rect x="157.58" y="345.83" width="9.77" height="9.77" style="fill:#fff"></rect><rect x="176.51" y="345.83" width="9.77" height="9.77" style="fill:#fff"></rect><rect x="195.44" y="345.83" width="9.77" height="9.77" style="fill:#fff"></rect><rect x="214.38" y="345.83" width="9.77" height="9.77" style="fill:#fff"></rect><rect x="151.12" y="232.5" width="79.49" height="1.99" transform="translate(381.73 466.99) rotate(180)" style="fill:#f5f5f5"></rect><rect x="165.36" y="213.95" width="51.01" height="1.99" transform="translate(381.73 429.9) rotate(180)" style="fill:#f5f5f5"></rect><polygon points="99.36 289.97 51.06 289.97 51.06 365.83 128.14 365.83 128.14 289.97 128.14 256.32 99.36 289.97" style="fill:#f5f5f5"></polygon><rect x="128.14" y="256.33" width="14.39" height="109.5" style="fill:#e6e6e6"></rect><rect x="54.65" y="305.34" width="11.47" height="11.47" style="fill:#e0e0e0"></rect><rect x="55.93" y="305.34" width="10.2" height="11.47" style="fill:#fff;opacity:0.30000000000000004;isolation:isolate"></rect><rect x="54.65" y="324.64" width="11.47" height="11.47" style="fill:#e0e0e0"></rect><rect x="55.93" y="324.64" width="10.2" height="11.47" style="fill:#fff;opacity:0.30000000000000004;isolation:isolate"></rect><rect x="54.65" y="343.94" width="11.47" height="11.47" style="fill:#e0e0e0"></rect><rect x="55.93" y="343.94" width="10.2" height="11.47" style="fill:#fff;opacity:0.30000000000000004;isolation:isolate"></rect><rect x="55.93" y="343.94" width="11.47" height="11.47" style="fill:#fff;opacity:0.2;isolation:isolate"></rect><rect x="73.99" y="305.34" width="11.47" height="11.47" style="fill:#e0e0e0"></rect><rect x="75.27" y="305.34" width="10.2" height="11.47" style="fill:#fff;opacity:0.30000000000000004;isolation:isolate"></rect><rect x="73.99" y="324.64" width="11.47" height="11.47" style="fill:#e0e0e0"></rect><rect x="75.27" y="324.64" width="10.2" height="11.47" style="fill:#fff;opacity:0.30000000000000004;isolation:isolate"></rect><rect x="73.99" y="343.94" width="11.47" height="11.47" style="fill:#e0e0e0"></rect><rect x="75.27" y="343.94" width="10.2" height="11.47" style="fill:#fff;opacity:0.30000000000000004;isolation:isolate"></rect><rect x="75.27" y="343.94" width="11.47" height="11.47" style="fill:#fff;opacity:0.2;isolation:isolate"></rect><rect x="93.33" y="305.34" width="11.47" height="11.47" style="fill:#e0e0e0"></rect><rect x="94.61" y="305.34" width="10.2" height="11.47" style="fill:#fff;opacity:0.30000000000000004;isolation:isolate"></rect><rect x="93.33" y="324.64" width="11.47" height="11.47" style="fill:#e0e0e0"></rect><rect x="94.61" y="324.64" width="10.2" height="11.47" style="fill:#fff;opacity:0.30000000000000004;isolation:isolate"></rect><rect x="93.33" y="343.94" width="11.47" height="11.47" style="fill:#e0e0e0"></rect><rect x="94.61" y="343.94" width="10.2" height="11.47" style="fill:#fff;opacity:0.30000000000000004;isolation:isolate"></rect><rect x="94.61" y="343.94" width="11.47" height="11.47" style="fill:#fff;opacity:0.2;isolation:isolate"></rect><rect x="112.67" y="305.34" width="11.47" height="11.47" style="fill:#e0e0e0"></rect><rect x="113.95" y="305.34" width="10.2" height="11.47" style="fill:#fff;opacity:0.30000000000000004;isolation:isolate"></rect><rect x="112.67" y="324.64" width="11.47" height="11.47" style="fill:#e0e0e0"></rect><rect x="113.95" y="324.64" width="10.2" height="11.47" style="fill:#fff;opacity:0.30000000000000004;isolation:isolate"></rect><rect x="112.67" y="343.94" width="11.47" height="11.47" style="fill:#e0e0e0"></rect><rect x="113.95" y="343.94" width="10.2" height="11.47" style="fill:#fff;opacity:0.30000000000000004;isolation:isolate"></rect><rect x="113.95" y="343.94" width="11.47" height="11.47" style="fill:#fff;opacity:0.2;isolation:isolate"></rect></g><g id="freepik--Shadow--inject-147"><ellipse id="freepik--path--inject-147" cx="250" cy="415.69" rx="193.89" ry="11.32" style="fill:#f5f5f5"></ellipse></g><g id="freepik--Floor--inject-147"><rect x="39.92" y="366.66" width="420.16" height="15.56" style="fill:#1E8F3E"></rect><g style="opacity:0.7000000000000001"><rect x="39.92" y="366.66" width="420.16" height="15.56" style="fill:#fff"></rect></g><rect x="61.58" y="366.66" width="1" height="16.31" style="fill:#fff"></rect><rect x="155.56" y="366.66" width="1" height="16.31" style="fill:#fff"></rect><rect x="249.54" y="366.66" width="1" height="16.31" style="fill:#fff"></rect><rect x="343.52" y="366.66" width="1" height="16.31" style="fill:#fff"></rect><rect x="437.5" y="366.66" width="1" height="16.31" style="fill:#fff"></rect><rect x="39.92" y="383.37" width="420.16" height="4.9" style="fill:#1E8F3E"></rect><rect x="39.92" y="383.37" width="420.16" height="4.9" style="fill:#fff;opacity:0.9"></rect></g><g id="freepik--Hydrant--inject-147"><path d="M386.26,334h-2a2,2,0,0,1-2-2h0a2,2,0,0,1,2-2h2Z" style="fill:#1E8F3E"></path><path d="M415.21,330h2a2,2,0,0,1,2,2h0a2,2,0,0,1-2,2h-2Z" style="fill:#1E8F3E"></path><rect x="386.26" y="325.68" width="28.95" height="12.64" style="fill:#1E8F3E"></rect><rect x="386.26" y="325.68" width="28.95" height="12.64" style="opacity:0.1"></rect><rect x="384.25" y="323.93" width="4.03" height="16.13" style="fill:#1E8F3E"></rect><rect x="413.19" y="323.93" width="4.03" height="16.13" style="fill:#1E8F3E"></rect><rect x="384.25" y="323.93" width="4.03" height="16.13" style="fill:#fff;opacity:0.2"></rect><rect x="413.19" y="323.93" width="4.03" height="16.13" style="fill:#fff;opacity:0.2"></rect><path d="M408.51,361.34H393V317.69a7.78,7.78,0,0,1,7.78-7.78h0a7.77,7.77,0,0,1,7.77,7.78Z" style="fill:#1E8F3E"></path><path d="M396.3,358.74h8.88a6.15,6.15,0,0,1,6.15,6.15v1.82a0,0,0,0,1,0,0H390.15a0,0,0,0,1,0,0v-1.82A6.15,6.15,0,0,1,396.3,358.74Z" style="fill:#1E8F3E"></path><path d="M396.3,358.74h8.88a6.15,6.15,0,0,1,6.15,6.15v1.82a0,0,0,0,1,0,0H390.15a0,0,0,0,1,0,0v-1.82A6.15,6.15,0,0,1,396.3,358.74Z" style="fill:#fff;opacity:0.2"></path><circle cx="400.74" cy="331.97" r="6.66" style="fill:#fff;opacity:0.2"></circle><path d="M402.32,332a1.59,1.59,0,1,1-1.58-1.58A1.59,1.59,0,0,1,402.32,332Z" style="fill:#ebebeb"></path><path d="M390.15,319.9h0a2,2,0,0,1,2-2h17.14a2,2,0,0,1,2,2h0a2,2,0,0,1-2,2H392.17A2,2,0,0,1,390.15,319.9Z" style="fill:#1E8F3E"></path><path d="M390.15,319.9h0a2,2,0,0,1,2-2h17.14a2,2,0,0,1,2,2h0a2,2,0,0,1-2,2H392.17A2,2,0,0,1,390.15,319.9Z" style="fill:#fff;opacity:0.2"></path></g><g id="freepik--Sreetlight--inject-147"><path d="M134.88,89.38c-14.06,1.82-35.49,6.51-52.26,15.31V108S105.79,94.57,135,92.15Z" style="fill:#1E8F3E"></path><path d="M159.41,94.35a12,12,0,0,0-3-1.91c-2.42-1-17.07,1.15-22.08,1.94V92.25l-.13-2.78c3.41-.35,6.47-.6,9-.76,4.22-.23,7.34-.37,9.66-.44A6.25,6.25,0,0,1,159.41,94.35Z" style="fill:#1E8F3E"></path><rect x="117.18" y="93.53" width="2.28" height="9.97" style="fill:#263238"></rect><path d="M82.62,128.18a1.83,1.83,0,0,1-1.76-1.85c0-.9,0-2.77,9.4-11.26a38.6,38.6,0,0,1,4.2-3.39c12.48-8.52,27.82-10.65,28.46-10.73a1.77,1.77,0,1,1,.47,3.5c-.15,0-15.17,2.11-26.94,10.15a35.34,35.34,0,0,0-3.82,3.09c-6.12,5.52-8.07,8.13-8.26,8.8A1.69,1.69,0,0,1,82.62,128.18Z" style="fill:#263238"></path><path d="M80.09,104.18H84a.24.24,0,0,1,.24.24V366.47a0,0,0,0,1,0,0H79.84a0,0,0,0,1,0,0V104.42A.24.24,0,0,1,80.09,104.18Z" style="fill:#263238"></path><path d="M161.2,94.54v.14l-20.51,1.93-4.56-1.93v-.3c5-.79,19.66-3,22.08-1.94a12.11,12.11,0,0,1,3,1.91A.55.55,0,0,1,161.2,94.54Z" style="fill:#1E8F3E"></path><path d="M161.2,94.54v.14l-20.51,1.93-4.56-1.93v-.3c5-.79,19.66-3,22.08-1.94a12.11,12.11,0,0,1,3,1.91A.55.55,0,0,1,161.2,94.54Z" style="fill:#fff;opacity:0.6000000000000001"></path></g><g id="freepik--Clock--inject-147"><path d="M324.09,194.66a.94.94,0,0,1,0,1.33.86.86,0,0,1-.43.23l.23,7.9h-.57l-.22-7.95a.94.94,0,0,1-.33-.23.91.91,0,0,1-.25-.68l-3.89-1.75,0-.55,4.13,1.67,0,0A.94.94,0,0,1,324.09,194.66Z" style="fill:#263238"></path><path d="M323.37,184a11.52,11.52,0,1,0,11.52,11.52A11.51,11.51,0,0,0,323.37,184Zm0,20.63a9.24,9.24,0,1,1,9.24-9.24A9.24,9.24,0,0,1,323.37,204.64Z" style="fill:#263238"></path><path d="M324,196a.86.86,0,0,1-.43.23l.23,7.9h-.57l-.22-7.95a.94.94,0,0,1-.33-.23.91.91,0,0,1-.25-.68l-3.89-1.75,0-.55,4.13,1.67,0,0A.93.93,0,1,1,324,196Z" style="fill:#263238;opacity:0.8"></path><path d="M324,196a.86.86,0,0,1-.43.23,1.08,1.08,0,0,1-.56,0,.94.94,0,0,1-.33-.23.91.91,0,0,1-.25-.68.89.89,0,0,1,.28-.63l0,0A.93.93,0,1,1,324,196Z" style="fill:#263238"></path><polygon points="323.84 204.12 323.27 204.13 323.06 196.18 323.04 195.52 322.47 195.27 318.58 193.53 318.62 192.97 322.75 194.64 323.58 194.99 323.61 196.22 323.84 204.12" style="fill:#263238"></polygon></g><g id="freepik--Symbol--inject-147"><polygon points="227.88 114.49 236.22 110.41 240.58 118.61 249.73 120.22 248.43 129.41 254.88 136.09 248.43 142.77 249.73 151.96 240.58 153.57 236.22 161.77 227.88 157.69 219.53 161.77 215.18 153.57 206.03 151.96 207.33 142.77 200.88 136.09 207.33 129.41 206.03 120.22 215.18 118.61 219.53 110.41 227.88 114.49" style="fill:#1E8F3E"></polygon><path d="M224.55,148.93a3.42,3.42,0,0,1,3.58-3.41,3.37,3.37,0,0,1,3.5,3.41,3.41,3.41,0,0,1-3.5,3.45A3.46,3.46,0,0,1,224.55,148.93Zm.3-27.85h6.56L230.3,141.8h-4.38Z" style="fill:#fff"></path></g><g id="freepik--Lines--inject-147"><path d="M213.65,303.61l-7.16,0v-.72c12,0,24.21,0,36.39-.19v.72C233.12,303.54,223.32,303.61,213.65,303.61Z" style="fill:#1E8F3E"></path><path d="M200.6,303.57c-5.14,0-10.39-.09-15.61-.17v-.72c5.22.07,10.47.13,15.61.16Z" style="fill:#1E8F3E"></path><rect x="173.89" y="302.68" width="5.85" height="0.72" style="fill:#1E8F3E"></rect><rect x="136.63" y="233.18" width="36.69" height="0.72" style="fill:#1E8F3E"></rect><rect x="129.69" y="233.18" width="2.99" height="0.72" style="fill:#1E8F3E"></rect><rect x="213.99" y="189.54" width="16.67" height="0.72" style="fill:#1E8F3E"></rect><rect x="200.34" y="189.54" width="9.4" height="0.72" style="fill:#1E8F3E"></rect></g></svg>